sfk_cyclingleg_states
version=1
nRows=5
nColumns=53
inDegrees=yes

# SIMM Motion File Header:
name sfk_cyclingleg_states
datacolumns 53
datarows 5
otherdata 1
range 0.53123674 0.53304006
endheader
time	/jointset/bb/crank_angle/value	/jointset/bb/crank_angle/speed	/jointset/spindle/pedal_angle_r/value	/jointset/spindle/pedal_angle_r/speed	/jointset/ground_pelvis/pelvis_tilt/value	/jointset/ground_pelvis/pelvis_tilt/speed	/jointset/ground_pelvis/pelvis_list/value	/jointset/ground_pelvis/pelvis_list/speed	/jointset/ground_pelvis/pelvis_rotation/value	/jointset/ground_pelvis/pelvis_rotation/speed	/jointset/ground_pelvis/pelvis_tx/value	/jointset/ground_pelvis/pelvis_tx/speed	/jointset/ground_pelvis/pelvis_ty/value	/jointset/ground_pelvis/pelvis_ty/speed	/jointset/ground_pelvis/pelvis_tz/value	/jointset/ground_pelvis/pelvis_tz/speed	/jointset/hip_r/hip_angle_r/value	/jointset/hip_r/hip_angle_r/speed	/jointset/hip_r/hip_adduction_r/value	/jointset/hip_r/hip_adduction_r/speed	/jointset/hip_r/hip_rotation_r/value	/jointset/hip_r/hip_rotation_r/speed	/jointset/knee_r/knee_angle_r/value	/jointset/knee_r/knee_angle_r/speed	/jointset/knee_r/tib_tx_r/value	/jointset/knee_r/tib_tx_r/speed	/jointset/knee_r/tib_ty_r/value	/jointset/knee_r/tib_ty_r/speed	/jointset/tib_pat_r/pat_angle_r/value	/jointset/tib_pat_r/pat_angle_r/speed	/jointset/tib_pat_r/pat_tx_r/value	/jointset/tib_pat_r/pat_tx_r/speed	/jointset/tib_pat_r/pat_ty_r/value	/jointset/tib_pat_r/pat_ty_r/speed	/jointset/ankle_r/ankle_angle_r/value	/jointset/ankle_r/ankle_angle_r/speed	/jointset/subtalar_r/subtalar_angle_r/value	/jointset/subtalar_r/subtalar_angle_r/speed	/jointset/mtp_r/mtp_angle_r/value	/jointset/mtp_r/mtp_angle_r/speed	/forceset/bifemlh_r/activation	/forceset/bifemlh_r/fiber_length	/forceset/bifemsh_r/activation	/forceset/bifemsh_r/fiber_length	/forceset/glut_max2_r/activation	/forceset/glut_max2_r/fiber_length	/forceset/vas_int_r/activation	/forceset/vas_int_r/fiber_length	/forceset/med_gas_r/activation	/forceset/med_gas_r/fiber_length	/forceset/tib_ant_r/activation	/forceset/tib_ant_r/fiber_length
      0.53123674	   -265.20216257	   -480.13863232	    246.64577854	    405.21270045	     -0.00000000	     -0.00000000	     -0.00000000	     -0.00000000	      0.00000000	      0.00000000	     -0.00000000	     -0.00000000	      0.00000000	      0.00000000	     -0.00000000	     -0.00000000	     55.60735054	    144.44078262	      4.24503085	     -1.95995313	     -2.14205559	    -21.14232205	    -97.15427759	   -256.83605189	      0.00266924	     -0.04843269	     -0.48841602	     -0.08880482	     17.59455852	      1.07432743	      0.02992786	     -0.10521579	     -0.02301764	     -0.01329805	     23.54816908	     38.96407896	     -0.00000000	     -0.00000000	     -0.00000000	     -0.00000000	     -0.04295463	      0.11762171	     -0.04295463	      0.14931452	     -0.04295463	      0.14127601	     -0.04295463	      0.15198529	      0.05000000	      0.10000000	      0.05000000	      0.10000000
      0.53169043	   -265.41999460	   -480.13863232	    246.82978932	    405.96929574	     -0.00000000	     -0.00000000	     -0.00000000	     -0.00000000	      0.00000000	      0.00000000	     -0.00000000	     -0.00000000	      0.00000000	      0.00000000	     -0.00000000	     -0.00000000	     55.67292358	    144.62735160	      4.24414107	     -1.96247369	     -2.15164417	    -21.12736204	    -97.27070317	   -256.40693491	      0.00264723	     -0.04858172	     -0.48845627	     -0.08864320	     17.59504569	      1.07322923	      0.02988014	     -0.10515876	     -0.02302368	     -0.01333319	     23.56587891	     39.10669844	     -0.00000000	     -0.00000000	     -0.00000000	     -0.00000000	     -0.04301304	      0.11766275	     -0.04301304	      0.14927783	     -0.04301304	      0.14131868	     -0.04301304	      0.15204603	      0.05000000	      0.10000000	      0.05000000	      0.10000000
      0.53214412	   -265.63782662	   -480.13863232	    247.01414363	    406.72705955	     -0.00000000	     -0.00000000	     -0.00000000	     -0.00000000	      0.00000000	      0.00000000	     -0.00000000	     -0.00000000	      0.00000000	      0.00000000	     -0.00000000	     -0.00000000	     55.73858123	    144.81372303	      4.24325016	     -1.96493876	     -2.16122593	    -21.11226156	    -97.38693358	   -255.97565540	      0.00262515	     -0.04872941	     -0.48849645	     -0.08848062	     17.59553233	      1.07203524	      0.02983244	     -0.10510040	     -0.02302973	     -0.01336776	     23.58365325	     39.24850020	     -0.00000000	     -0.00000000	     -0.00000000	     -0.00000000	     -0.04307145	      0.11770406	     -0.04307145	      0.14924133	     -0.04307145	      0.14136137	     -0.04307145	      0.15210680	      0.05000000	      0.10000000	      0.05000000	      0.10000000
      0.53259780	   -265.85565865	   -480.13863232	    247.19884199	    407.48598368	     -0.00000000	     -0.00000000	     -0.00000000	     -0.00000000	      0.00000000	      0.00000000	     -0.00000000	     -0.00000000	      0.00000000	      0.00000000	     -0.00000000	     -0.00000000	     55.80432338	    144.99989098	      4.24235815	     -1.96734808	     -2.17080081	    -21.09701872	    -97.50296783	   -255.54220832	      0.00260301	     -0.04887573	     -0.48853656	     -0.08831709	     17.59601841	      1.07074626	      0.02978477	     -0.10504071	     -0.02303581	     -0.01340177	     23.60149175	     39.38947674	     -0.00000000	     -0.00000000	     -0.00000000	     -0.00000000	     -0.04312986	      0.11774563	     -0.04312986	      0.14920503	     -0.04312986	      0.14140408	     -0.04312986	      0.15216730	      0.05000000	      0.10000000	      0.05000000	      0.10000000
      0.53304006	   -266.06800633	   -480.13863232	    247.37922188	    408.22690937	     -0.00000000	     -0.00000000	     -0.00000000	     -0.00000000	      0.00000000	      0.00000000	     -0.00000000	     -0.00000000	      0.00000000	      0.00000000	     -0.00000000	     -0.00000000	     55.86849160	    145.18117024	      4.24148755	     -1.96964287	     -2.18012793	    -21.08202080	    -97.61589094	   -255.11758290	      0.00258137	     -0.04901706	     -0.48857558	     -0.08815674	     17.59649166	      1.06939908	      0.02973833	     -0.10498123	     -0.02304174	     -0.01343438	     23.61894251	     39.52610240	     -0.00000000	     -0.00000000	     -0.00000000	     -0.00000000	     -0.04318680	      0.11778642	     -0.04318680	      0.14916982	     -0.04318680	      0.14144574	     -0.04318680	      0.15222412	      0.05000000	      0.10000000	      0.05000000	      0.10000000
